# xmcd
# 
# Track frame offsets:
#     150
#     8622
#     15405
#     25085
#     27925
#     40592
#     42052
#     51975
#     55405
#     57435
#     59917
#     64492
#     69095
#     79532
#     81712
#     89487
#     90957
#     96472
#     98787
#     105622
#     108660
#     115317
#     137420
#     138805
#     142347
#     150262
#     154982
#     165725
# 
# Disc length: 2257
# 
# Revision: 2
# Processed by: cddbd v1.5.2PL0 Copyright (c) Steve Scherf et al.
# Submitted via: BonkEnc v1.0
# 
DISCID=7808cf1c
DTITLE=Margret Birkenfeld - Betthupferl
DYEAR=2005
DGENRE=Chorus
TTITLE0=Wer hat die schönsten Schäfchen
TTITLE1=Hörszene: "Am Himmel steht der große Wagen"
TTITLE2=Viele Sterne
TTITLE3=Hörszene: "Warum ist der Mond so groß"
TTITLE4=Sag, wo wohnt der liebe Gott
TTITLE5=Hörszene: "Ich bin doch nicht müde"
TTITLE6=Jeden Abend gibt's ein Kämpfchen
TTITLE7=Hörszene: "Der große Hund von nebenan"
TTITLE8=Unser Dackel Dina
TTITLE9=Hörszene: "Warum hört der Dackel nicht?"
TTITLE10=Unser Dackel Dina - Strophe 2
TTITLE11=Hörszene: "In den Bach geplumpst"
TTITLE12=Ihr Kinder, gehorcht euren Eltern
TTITLE13=Hörszene: "Gehorchen ist keine Strafe"
TTITLE14=Ich möchte, dass mein kleines Herz
TTITLE15=Hörszene: "Teddy ist müde"
TTITLE16=Schlafliedchen
TTITLE17=Hörszene: "Was ist mit Schlappohr"
TTITLE18=Schlappohr  heißt mein Hase
TTITLE19=Hörszene: "Ich bin schon groß"
TTITLE20=Ich kann schon ganz, ganz viel allein
TTITLE21=Biblische Geschichte: "Fünftausend Mann werden satt"
TTITLE22=Nun wollen wir singen das Abendlied
TTITLE23=Hörszene: "Wenn die Puppe nicht schlafen will"
TTITLE24=Schlaf, mein Püppchen Karolin
TTITLE25=Hörszene: "Mein kleines Schwesterchen"
TTITLE26=Schlafe, mein Kindchen
TTITLE27=Hörszene: "Gute Nacht"
EXTD=
EXTT0=
EXTT1=
EXTT2=
EXTT3=
EXTT4=
EXTT5=
EXTT6=
EXTT7=
EXTT8=
EXTT9=
EXTT10=
EXTT11=
EXTT12=
EXTT13=
EXTT14=
EXTT15=
EXTT16=
EXTT17=
EXTT18=
EXTT19=
EXTT20=
EXTT21=
EXTT22=
EXTT23=
EXTT24=
EXTT25=
EXTT26=
EXTT27=
PLAYORDER=
